PathFileType	4	(X/Y/Z)	subject01_walk1.trc
DataRate	CameraRate	NumFrames	NumMarkers	Units	OrigDataRate	OrigDataStartFrame	OrigNumFrames
60.00	60.00	       5	41	mm	60.00	114	       151
Frame#	Time	R.ASIS			L.ASIS			V.Sacral			R.Thigh.Upper			R.Thigh.Front			R.Thigh.Rear			L.Thigh.Upper			L.Thigh.Front			L.Thigh.Rear			R.Shank.Upper			R.Shank.Front			R.Shank.Rear			L.Shank.Upper			L.Shank.Front			L.Shank.Rear			R.Heel			R.Midfoot.Sup			R.Midfoot.Lat			R.Toe.Tip			L.Heel			L.Midfoot.Sup			L.Midfoot.Lat			L.Toe.Tip			Sternum			R.Acromium			L.Acromium			R.Bicep			L.Bicep			R.Elbow			L.Elbow			R.Wrist.Med			R.Wrist.Lat			L.Wrist.Med			L.Wrist.Lat			R.Toe.Lat			R.Toe.Med			L.Toe.Lat			L.Toe.Med			R.Temple			L.Temple			Top.Head			
		X1	Y1	Z1	X2	Y2	Z2	X3	Y3	Z3	X4	Y4	Z4	X5	Y5	Z5	X6	Y6	Z6	X7	Y7	Z7	X8	Y8	Z8	X9	Y9	Z9	X10	Y10	Z10	X11	Y11	Z11	X12	Y12	Z12	X13	Y13	Z13	X14	Y14	Z14	X15	Y15	Z15	X16	Y16	Z16	X17	Y17	Z17	X18	Y18	Z18	X19	Y19	Z19	X20	Y20	Z20	X21	Y21	Z21	X22	Y22	Z22	X23	Y23	Z23	X24	Y24	Z24	X25	Y25	Z25	X26	Y26	Z26	X27	Y27	Z27	X28	Y28	Z28	X29	Y29	Z29	X30	Y30	Z30	X31	Y31	Z31	X32	Y32	Z32	X33	Y33	Z33	X34	Y34	Z34	X35	Y35	Z35	X36	Y36	Z36	X37	Y37	Z37	X38	Y38	Z38	X39	Y39	Z39	X40	Y40	Z40	X41	Y41	Z41	

114	1.883000	1605.463620	1043.409420	1128.033980	1604.875490	1029.390630	866.897230	1408.279690	1035.891110	1015.220230	1663.094060	739.175350	1177.089110	1735.148740	702.120420	1077.991640	1703.050660	624.658450	1170.360460	1469.087490	748.882690	822.871640	1551.187620	686.478580	878.630620	1435.836330	645.811220	841.674800	1703.906190	445.304840	1159.527560	1791.213500	437.429660	1107.652260	1745.832150	368.366610	1168.978420	1341.505890	445.695040	849.057400	1369.880340	381.263180	900.669530	1305.605410	413.872160	843.746700	1783.670780	58.019300	1091.669580	1916.409000	112.628020	1064.139410	1911.776920	92.881680	1169.932100	2057.621580	135.020780	1109.323910	1111.929580	113.093920	946.215300	1279.155090	82.839870	974.852470	1259.807710	67.265840	880.499410	1376.838010	43.981560	953.075580	1634.333440	1345.822020	1004.671970	1514.726990	1430.114500	1206.816910	1582.543460	1460.904300	794.880920	1493.723330	1232.737550	1248.565810	1626.807250	1227.808840	765.923050	1433.477840	1136.055540	1268.790410	1597.733700	1124.225830	721.958680	1553.186950	894.178100	1277.403810	1505.632390	882.774290	1320.150120	1777.943360	968.105040	811.667710	1752.505430	932.253420	750.335210	1999.934570	96.465260	1186.519710	2008.211240	112.452190	1077.866900	1312.672180	36.905430	875.305110	1334.400240	46.597680	975.660960	1683.369200	1587.457520	1094.192020	1700.824340	1595.913330	956.891130	1652.659120	1762.271730	1034.207270	
115	1.900000	1610.035160	1042.573240	1129.643400	1607.802060	1028.724980	869.284410	1412.041690	1034.990360	1018.415480	1669.168400	740.619690	1178.345500	1742.269710	704.173280	1080.308410	1707.790710	624.138120	1169.413510	1471.537080	748.532650	823.953960	1553.886350	685.666320	879.251050	1438.114720	645.137210	842.512880	1709.480650	446.073120	1157.898540	1792.595030	434.634460	1105.646020	1747.858760	368.696590	1165.998210	1341.202300	447.382900	848.983470	1366.513890	380.440190	899.375220	1304.463470	416.263980	843.179000	1769.020200	59.637940	1090.261210	1904.560790	103.874230	1061.808570	1899.117070	85.708900	1167.552990	2047.263180	117.381400	1105.997770	1099.004330	123.335660	944.675990	1264.058560	84.803720	973.928690	1244.745040	68.463190	878.820880	1357.317290	43.717350	953.111520	1635.828860	1345.731080	1008.384970	1517.087520	1428.335450	1211.605740	1583.385440	1461.823240	799.207570	1495.758670	1230.269290	1252.052800	1624.817140	1228.252560	769.686160	1437.083590	1133.562620	1271.443210	1597.567080	1125.285520	725.398160	1558.834230	892.376710	1279.349030	1510.447020	880.629520	1322.222260	1772.433530	960.945310	811.647600	1745.408020	927.113590	748.952290	1989.346190	82.772990	1183.890140	1995.907290	96.995480	1075.465870	1293.279450	36.371800	875.561340	1317.032290	45.640810	975.710620	1683.208560	1587.866330	1098.553250	1700.046200	1596.536130	960.482050	1651.495180	1762.113890	1037.426840	
116	1.917000	1614.109190	1043.691160	1131.514950	1610.234680	1029.254270	871.123210	1416.044740	1034.901250	1021.625540	1673.109560	740.785400	1180.360600	1749.025150	707.489140	1082.063260	1711.745000	625.103700	1169.462130	1475.783360	748.125610	825.254000	1558.198430	684.754940	879.134540	1442.387730	644.550420	843.162350	1714.330750	448.268400	1157.690230	1798.395390	434.544340	1103.106080	1750.018860	369.452180	1165.613300	1343.656160	448.158200	847.878800	1365.724820	380.103970	898.947320	1306.239500	418.655880	842.371540	1753.647460	61.591050	1089.845920	1891.250730	96.267660	1060.288790	1885.386960	79.536970	1166.137150	2035.271970	101.565650	1103.733020	1088.248690	135.881030	942.853380	1250.118060	87.506360	973.049720	1230.743530	70.352720	877.297450	1338.454440	43.574990	953.389390	1638.799070	1346.793820	1012.918890	1518.583800	1427.625120	1216.264190	1584.282650	1462.695430	804.456510	1499.541810	1228.506590	1255.580700	1626.478940	1229.452510	773.822950	1441.449160	1131.680660	1274.369780	1595.520810	1126.219120	729.759800	1564.429870	892.094790	1281.618320	1515.039060	878.838500	1324.180880	1765.333250	953.913510	809.966000	1736.771180	923.046880	747.159560	1974.805730	71.625940	1182.686230	1982.240110	83.686260	1073.796510	1274.240390	36.025120	876.035940	1300.069400	44.813770	976.006780	1686.036990	1589.604860	1102.780300	1701.417300	1598.133790	964.735520	1651.551270	1763.638180	1042.670040	
117	1.933000	1618.854060	1045.244510	1133.424320	1614.798520	1030.283690	872.827160	1420.037020	1035.445070	1024.690920	1679.925960	742.997560	1181.346760	1754.728520	709.422490	1082.988530	1717.665410	627.106080	1168.462710	1481.982790	747.426640	826.530090	1564.894170	685.385130	878.621090	1449.437070	643.273620	843.991670	1717.615600	452.196040	1159.482830	1799.470150	433.911070	1103.211620	1751.888850	371.550200	1166.688580	1349.997130	448.597440	847.957660	1370.006810	379.386660	897.282160	1311.540860	420.913360	841.100690	1737.608760	63.633340	1090.243670	1876.840640	90.295550	1059.510120	1870.697750	74.623200	1165.689960	2021.760010	88.155210	1102.500160	1080.409500	151.097150	940.806560	1237.542280	91.230630	972.081360	1217.487690	73.330430	876.258380	1320.699710	43.402810	953.885150	1640.713680	1348.330570	1016.350090	1521.608890	1427.445070	1221.313000	1584.964660	1465.125610	808.434390	1503.688540	1227.904540	1259.411830	1626.336300	1230.590330	777.672870	1446.593110	1130.366940	1277.516110	1594.857910	1128.506100	733.384060	1570.094600	889.964900	1283.194180	1521.404170	877.588200	1325.304990	1757.257810	947.820500	808.597550	1727.223270	919.372190	745.523570	1958.015010	63.022320	1183.187650	1967.389530	73.015290	1072.708560	1256.110230	36.258250	876.563240	1283.697240	44.574380	976.358470	1686.871890	1591.796630	1106.960890	1701.272640	1600.919680	968.722690	1650.459230	1765.534550	1046.971480	
118	1.950000	1623.435790	1048.281860	1135.056720	1617.373660	1031.076170	875.084530	1423.817630	1036.319090	1027.578220	1686.154480	745.800480	1182.534650	1760.178340	711.913820	1083.128600	1725.055480	629.948610	1169.652440	1490.175630	746.222780	827.592350	1574.556880	685.587830	878.789110	1461.501430	641.852660	844.040540	1719.697020	454.110930	1161.753680	1799.128780	432.405670	1102.541920	1749.882750	372.447940	1169.446620	1360.199190	448.926850	846.199800	1376.187710	378.239440	895.363750	1320.761540	422.953430	839.311750	1720.869570	65.554620	1091.196580	1861.533570	85.982480	1059.300660	1855.103030	70.889260	1165.983870	2006.823430	77.070910	1102.089400	1076.379510	169.243650	938.706160	1226.755390	96.273940	971.019410	1205.243560	78.172680	875.656750	1304.322540	42.977700	954.415220	1643.396000	1351.159550	1020.895480	1524.761900	1428.657710	1225.743230	1586.266420	1467.563840	813.382520	1509.143770	1228.391850	1263.066620	1626.968630	1233.364750	781.131200	1452.426670	1129.541380	1280.827030	1592.758120	1131.448730	737.591430	1577.405210	889.819640	1284.528780	1527.496950	876.538820	1327.439480	1747.358520	940.648250	806.716110	1715.509220	916.017330	743.476350	1944.145510	56.067700	1182.008590	1951.548340	64.778130	1072.059170	1239.412380	37.562480	876.843070	1268.132320	45.382100	976.518070	1688.017760	1594.582150	1110.795370	1701.611630	1603.438600	973.071130	1650.704590	1767.743040	1051.080530	
